<?xml version="1.0" encoding="UTF-8" standalone="no"?>
<!-- Uploaded to: SVG Repo, www.svgrepo.com, Generator: SVG Repo Mixer Tools -->

<svg
   width="800px"
   height="800px"
   viewBox="0 0 1024 1024"
   class="icon"
   version="1.1"
   id="svg10"
   sodipodi:docname="logo_cifmw.svg"
   inkscape:version="1.3 (0e150ed6c4, 2023-07-21)"
   inkscape:export-filename="logo_cifmw.png"
   inkscape:export-xdpi="96"
   inkscape:export-ydpi="96"
   xmlns:inkscape="http://www.inkscape.org/namespaces/inkscape"
   xmlns:sodipodi="http://sodipodi.sourceforge.net/DTD/sodipodi-0.dtd"
   xmlns="http://www.w3.org/2000/svg"
   xmlns:svg="http://www.w3.org/2000/svg">
  <defs
     id="defs10" />
  <sodipodi:namedview
     id="namedview10"
     pagecolor="#505050"
     bordercolor="#eeeeee"
     borderopacity="1"
     inkscape:showpageshadow="0"
     inkscape:pageopacity="0"
     inkscape:pagecheckerboard="0"
     inkscape:deskcolor="#505050"
     inkscape:zoom="0.483125"
     inkscape:cx="1150.8409"
     inkscape:cy="439.84476"
     inkscape:window-width="2560"
     inkscape:window-height="979"
     inkscape:window-x="1920"
     inkscape:window-y="32"
     inkscape:window-maximized="1"
     inkscape:current-layer="svg10"
     inkscape:export-bgcolor="#ffffffff" />
  <path
     d="m 148.103,457.19072 c -0.11637,0.34629 -0.23273,0.57716 -0.3491,0.92345 0.11637,-0.23087 0.23273,-0.57716 0.3491,-0.92345 z m 266.93973,229.35926 c 0,-0.11544 0.11636,-0.23087 0.11636,-0.34629 0,0.11542 -0.11636,0.23085 -0.11636,0.34629 z M 134.25564,505.09414 c -0.11637,0.46172 -0.23272,1.03887 -0.34909,1.50059 0.11637,-0.46172 0.23272,-0.92344 0.34909,-1.50059 z m 17.10555,-55.98351 c -0.11635,0.34629 -0.23272,0.69258 -0.46545,0.92344 0.23273,-0.23086 0.3491,-0.57715 0.46545,-0.92344 z m -13.38189,39.70789 c -0.11636,0.34629 -0.23273,0.80801 -0.34909,1.1543 0.11636,-0.34629 0.23273,-0.69258 0.34909,-1.1543 z m 16.75646,-47.21084 c -0.23273,0.46173 -0.46546,1.03887 -0.69818,1.50059 0.23272,-0.46172 0.46545,-1.03886 0.69818,-1.50059 z m -9.42551,22.85514 c -0.11636,0.46171 -0.34909,0.92343 -0.46545,1.38515 0.11636,-0.34629 0.34909,-0.80801 0.46545,-1.38515 z M 413.53,689.78201 c 0,-0.11543 0.11636,-0.11543 0.11636,-0.23086 0,0.11543 0,0.23086 -0.11636,0.23086 z m -41.54207,-13.27444 c 0.3491,0.23086 0.58182,0.57715 0.93092,0.80801 -0.23273,-0.34629 -0.58182,-0.57715 -0.93092,-0.80801 z M 140.07386,480.85386 c -0.11636,0.46172 -0.23273,0.80801 -0.34909,1.26972 0.11636,-0.34629 0.23273,-0.808 0.34909,-1.26972 z m 44.33481,-87.9576 -1.04728,1.38516 z m 195.37567,291.57598 c 0.93091,1.15429 1.86183,2.53945 2.79275,3.80918 -0.93092,-1.38516 -1.86184,-2.65489 -2.79275,-3.80918 z M 170.21222,413.09649 c -0.11637,0.23087 -0.3491,0.46173 -0.46546,0.69258 0.11636,-0.11542 0.23273,-0.34629 0.46546,-0.69258 z m 212.36487,275.30036 1.39637,2.07774 z M 174.75042,406.05527 c -0.34908,0.57716 -0.69818,1.1543 -1.16364,1.61602 0.46546,-0.46172 0.81456,-1.03886 1.16364,-1.61602 z M 376.6425,680.77848 c 0.3491,0.46172 0.81456,0.80801 1.16365,1.26972 -0.34909,-0.34629 -0.81455,-0.808 -1.16365,-1.26972 z m 39.7966,2.3086 c 0.11637,-0.23087 0.11637,-0.3463 0.23273,-0.57716 -0.11636,0.23086 -0.23273,0.34629 -0.23273,0.57716 z M 165.90674,420.13772 c -0.23273,0.46172 -0.58182,0.92345 -0.81455,1.38516 0.23273,-0.46171 0.58182,-0.92344 0.81455,-1.38516 z m 225.74677,286.15077 c 0.23272,0.46171 0.34909,0.92344 0.58182,1.50058 -0.23273,-0.46171 -0.3491,-0.92343 -0.58182,-1.50058 z M 157.8776,434.91275 Z m 4.30548,-8.0801 c -0.23273,0.46173 -0.58183,1.03887 -0.81456,1.5006 0.23273,-0.57715 0.58183,-1.03887 0.81456,-1.5006 z m 216.2049,256.02356 c 0.46545,0.46173 0.81454,1.03887 1.28,1.50059 -0.46546,-0.57714 -0.81455,-1.03886 -1.28,-1.50059 z m 19.78192,29.66549 0.23274,-0.23085 z m -106.70607,17.08364 c 0.11636,-0.11544 0.23273,-0.23087 0.23273,-0.34629 0,0.23085 -0.11637,0.23085 -0.23273,0.34629 z m 78.42955,-54.82922 c 0.23273,0.23086 0.46546,0.34629 0.69818,0.57715 -0.23272,-0.11543 -0.46545,-0.34629 -0.69818,-0.57715 z m 5.81821,5.07892 -1.6291,-1.61602 z m 19.20011,35.78327 c 0.58183,-0.46172 1.16365,-1.03887 1.74547,-1.61602 -0.58182,0.57715 -1.16364,1.03887 -1.74547,1.61602 z m -273.80523,-137.24618 6.28368,-4.38633 -9.54187,6.57951 z m 268.6852,123.51002 c 0.3491,0.69258 0.58183,1.38516 0.93091,2.07774 -0.34908,-0.69258 -0.58181,-1.38516 -0.93091,-2.07774 z m -96.69873,26.08716 z m 125.90617,-52.40518 c 0.11637,-0.34629 0.23274,-0.57715 0.23274,-0.92344 -0.11637,0.23086 -0.23274,0.57715 -0.23274,0.92344 z m -31.06927,22.16254 c -1.28001,-2.53946 -2.56001,-4.84805 -3.84002,-7.15665 1.9782,3.34747 3.95639,6.9258 5.70185,10.96584 -0.58182,-1.26972 -1.28,-2.53946 -1.86183,-3.80919 z M 189.29597,387.00933 c -0.46547,0.57716 -0.81455,1.03887 -1.28001,1.61603 0.34909,-0.57716 0.81454,-1.1543 1.28001,-1.61603 z m 228.42314,292.38399 c 0.11637,-0.23086 0.23272,-0.46173 0.23272,-0.80802 -0.11635,0.34629 -0.11635,0.57716 -0.23272,0.80802 z M 130.29925,529.33443 Z m -2.09455,22.97054 c 0,0.80802 -0.11636,1.5006 -0.11636,2.30861 0,-0.69258 0.11636,-1.50059 0.11636,-2.30861 z m 238.89593,120.7397 c 0.23274,0.11544 0.46546,0.23086 0.69819,0.46172 -0.23273,-0.23086 -0.46545,-0.34628 -0.69819,-0.46172 z m -234.24136,-160.56302 -0.34909,1.73145 z m 260.5397,198.42404 c 0.11637,0.23086 0.23273,0.57714 0.23273,0.808 -0.11636,-0.23086 -0.23273,-0.57714 -0.23273,-0.808 z M 131.57926,520.33089 c -0.11636,0.46172 -0.11636,0.80801 -0.23273,1.26972 0.11637,-0.34629 0.11637,-0.808 0.23273,-1.26972 z m -2.79274,24.00942 c -0.11636,0.80802 -0.11636,1.73145 -0.23273,2.53946 0.11637,-0.80801 0.23273,-1.61602 0.23273,-2.53946 z m 50.26939,-144.2874 c -0.23274,0.34629 -0.46547,0.69258 -0.81455,1.03887 0.23272,-0.23085 0.46545,-0.69258 0.81455,-1.03887 z m 233.07771,292.84571 z m -47.36027,-21.23911 0.69819,0.34629 z M 129.48471,536.72194 c -0.11637,0.69258 -0.11637,1.38516 -0.23274,2.19316 0.11637,-0.69258 0.11637,-1.50058 0.23274,-2.19316 z"
     fill="#ffffff"
     id="path1"
     style="stroke-width:1.15896" />
  <path
     d="m 148.33572,663.1177 -16.75646,7.38751 c -14.42917,6.34865 -25.01832,21.12368 -32.46564,45.1331 C 89.80448,707.44278 79.448044,693.5912 73.629832,670.38979 61.178846,621.21664 117.38282,581.04703 117.96464,580.58531 l 9.54187,-6.57951 0.3491,-11.54299 c 0.11636,-2.65489 0.23273,-5.19435 0.34909,-7.7338 0,-0.80801 0.11636,-1.61602 0.11636,-2.3086 0.11637,-1.84688 0.23273,-3.57833 0.3491,-5.42521 0.11636,-0.80801 0.11636,-1.73145 0.23273,-2.53945 0.11636,-1.84688 0.34908,-3.69377 0.46545,-5.42521 0.11637,-0.69258 0.11637,-1.38516 0.23273,-2.19317 0.23273,-2.53946 0.58182,-4.96349 0.81455,-7.38752 l 1.04728,-7.61837 c 0.11636,-0.46172 0.11636,-0.80801 0.23273,-1.26973 0.3491,-2.07774 0.58182,-4.15548 0.93091,-6.11778 l 0.3491,-1.73145 1.04728,-5.88693 c 0.11635,-0.46172 0.23272,-1.03887 0.34908,-1.50059 0.46547,-2.42402 0.93092,-4.73263 1.51275,-7.15665 0.58181,-2.6549 1.28001,-5.30978 1.86182,-7.96466 0.11637,-0.34629 0.23273,-0.80802 0.3491,-1.15431 0.58182,-2.3086 1.16363,-4.50176 1.86183,-6.69493 0.11636,-0.46172 0.23273,-0.80801 0.34908,-1.26974 1.51275,-5.07891 3.02548,-10.04239 4.77095,-14.89045 0.11636,-0.46172 0.34908,-0.92344 0.46545,-1.38516 0.81455,-2.19317 1.51274,-4.2709 2.32729,-6.34864 0.11636,-0.34629 0.23273,-0.57716 0.3491,-0.92345 0.93091,-2.42402 1.86182,-4.73262 2.9091,-7.15665 0.11637,-0.34629 0.23272,-0.69258 0.46545,-0.92344 0.81455,-1.9623 1.74547,-4.04004 2.67638,-6.00236 0.23273,-0.46172 0.46546,-1.03886 0.69819,-1.50059 1.04728,-2.19316 2.09456,-4.50176 3.14184,-6.69493 1.16365,-2.19316 2.32728,-4.50177 3.49092,-6.69494 0.23274,-0.46171 0.58183,-1.03887 0.81455,-1.50058 0.93092,-1.73145 1.9782,-3.4629 2.90912,-5.19435 0.23272,-0.46172 0.58182,-0.92344 0.81455,-1.38516 1.28,-2.07774 2.44364,-4.15548 3.84002,-6.23321 0.11636,-0.23086 0.3491,-0.46173 0.46545,-0.69258 1.16365,-1.84688 2.32729,-3.57833 3.49093,-5.42521 0.3491,-0.57715 0.69819,-1.15429 1.16365,-1.61602 1.16364,-1.61602 2.32728,-3.34747 3.49092,-4.96348 0.23273,-0.34629 0.46547,-0.69258 0.81456,-1.03887 1.39637,-1.96232 2.79274,-3.80919 4.30547,-5.7715 l 1.04728,-1.38516 c 1.16365,-1.50059 2.32729,-3.00117 3.49094,-4.38633 0.46545,-0.57716 0.81455,-1.03887 1.28,-1.61603 1.51274,-1.84688 3.14184,-3.69375 4.65458,-5.54063 20.71284,-23.43228 41.42569,-37.39929 53.06212,-44.09423 11.52007,6.69494 32.23292,20.66195 53.06212,44.09423 41.4257,46.86455 63.76765,107.69611 66.21131,180.99411 l 0.34908,11.54299 9.54188,6.5795 c 0.46545,0.34629 56.78578,40.51591 44.21844,89.68905 -0.3491,1.5006 -0.81455,2.88575 -1.16364,4.27091 -0.11637,0.34629 -0.23273,0.57715 -0.23273,0.92344 -0.3491,1.03887 -0.58182,2.07774 -0.93092,3.1166 -0.11636,0.23087 -0.23273,0.46173 -0.23273,0.80802 l -1.04728,3.1166 c -0.11636,0.23087 -0.11636,0.34629 -0.23272,0.57716 -0.3491,1.03887 -0.81456,2.07774 -1.16364,3.11661 0,0.11542 -0.11637,0.23085 -0.11637,0.34628 l -1.39638,3.11661 c 0,0.11543 -0.11636,0.11543 -0.11636,0.23086 -0.46545,1.03887 -0.93091,2.07773 -1.51273,3.1166 -1.04728,2.07774 -2.21093,4.04006 -3.25821,5.88694 -3.37456,5.4252 -6.86549,9.81154 -10.35642,13.38987 l -0.23272,0.23085 -1.51274,1.50059 c -0.58182,0.57715 -1.16365,1.03887 -1.74547,1.61602 -0.46546,-1.26973 -0.81454,-2.65488 -1.28001,-3.92462 -0.11636,-0.23086 -0.23273,-0.57715 -0.23273,-0.808 -0.34908,-1.03887 -0.69818,-2.07774 -1.16364,-3.11662 -0.23272,-0.46171 -0.34909,-1.03887 -0.58182,-1.50058 -0.3491,-0.80801 -0.58182,-1.61602 -0.93091,-2.42403 -0.23273,-0.69258 -0.58182,-1.38515 -0.93092,-2.07774 0,-0.11543 -0.11636,-0.11543 -0.11636,-0.23086 -1.74546,-4.04004 -3.72366,-7.7338 -5.70185,-10.96584 l -0.11637,-0.11543 -1.39637,-2.07774 -0.11637,-0.11543 c -0.93091,-1.38516 -1.86182,-2.65489 -2.79274,-3.80918 l -0.11636,-0.11544 c -0.34909,-0.46172 -0.81455,-1.03886 -1.28,-1.50059 -0.23273,-0.23085 -0.46547,-0.46172 -0.58183,-0.69258 -0.3491,-0.46172 -0.81455,-0.92343 -1.16365,-1.26972 l -0.93091,-0.92345 c -0.58182,-0.57714 -1.04728,-1.15429 -1.6291,-1.61601 -0.34909,-0.34629 -0.69819,-0.69258 -1.16364,-1.03887 -0.3491,-0.23086 -0.58183,-0.57715 -0.93091,-0.80801 l -1.39638,-1.03887 c -0.23273,-0.23086 -0.46545,-0.34629 -0.69818,-0.57715 l -2.09456,-1.38516 c -0.23273,-0.11543 -0.46546,-0.23086 -0.69818,-0.46172 l -1.74548,-1.03887 -0.69818,-0.34629 c -0.81455,-0.46172 -1.51273,-0.80801 -2.32729,-1.1543 l -16.75646,-7.38751 -11.17097,14.42874 c -2.21093,2.77031 -4.42184,5.65606 -6.74913,8.54181 -11.05461,13.96702 -22.92377,28.51119 -31.53473,38.32273 -1.16365,1.26974 -2.21093,2.42403 -3.14184,3.57833 -0.46545,0.46172 -0.81455,0.92345 -1.28,1.38516 -0.11636,0.11543 -0.23273,0.23087 -0.23273,0.34629 -0.46546,0.46172 -0.81455,0.92344 -1.16364,1.26973 H 203.72513 C 194.0669,721.17894 174.98315,697.86211 159.5067,677.89273 Z M 249.68905,562.00109 c 36.30566,0 65.74583,-29.3192 65.74583,-65.2179 0,-36.01414 -29.55653,-65.2179 -65.74583,-65.2179 -36.18931,0 -65.74584,29.3192 -65.74584,65.2179 0,35.8987 29.44017,65.2179 65.74584,65.2179 z"
     fill="#E6E6E6"
     id="path2"
     style="fill:#cdcdcd;fill-opacity:1;stroke-width:1.15896" />
  <path
     d="M 333.12226,348.91746 C 295.30385,307.0164 257.71818,290.74078 256.20544,290.0482 l -9.19278,-3.92462 -9.19278,3.92462 c -1.6291,0.69258 -39.21478,16.9682 -76.91681,58.86926 -12.80007,14.19788 -26.64743,32.43581 -39.09841,55.29093 2.56001,-157.33097 132.53895,-284.65018 291.8417,-284.65018 117.29523,0 222.25584,69.25795 268.10337,174.64547 -9.89096,3.4629 -19.43284,7.61838 -28.74198,12.351 -31.88382,16.39105 -59.92762,40.16961 -81.22229,68.91166 -7.56368,10.27327 -5.35276,24.70201 5.00366,32.32038 10.35643,7.50295 24.90197,5.30977 32.58201,-4.96349 35.25839,-47.55712 91.81145,-75.95288 151.15725,-75.95288 103.44787,0 187.4629,83.45583 187.4629,185.95759 0,102.6172 -84.13139,185.9576 -187.4629,185.9576 h -300.3363 c 1.97819,-5.42521 3.84003,-11.08127 5.35276,-17.31449 16.40737,-64.52532 -32.00018,-113.58304 -53.29485,-131.47467 -5.93458,-99.96231 -45.9639,-164.3722 -79.12773,-201.07892 z M 508.83237,222.868 c 38.40022,21.81625 57.48397,51.48174 57.7167,51.82803 2.21091,3.46289 6.05094,5.4252 9.89096,5.4252 2.09456,0 4.30549,-0.57715 6.16731,-1.73145 5.46912,-3.34746 7.09823,-10.50412 3.60729,-15.92933 -0.93091,-1.38516 -22.45831,-34.85983 -65.86219,-59.56184 C 480.32311,180.15892 413.53,160.88213 322.5331,198.16599 c -5.93458,2.42403 -8.72732,9.2344 -6.28368,15.12132 2.44366,5.88692 9.30915,8.65724 15.24373,6.23321 65.97857,-27.12603 125.67346,-25.97173 177.33922,3.34748 z"
     fill="#ffffff"
     id="path3"
     style="stroke-width:1.15896" />
  <path
     d="m 142.8666,731.33678 c -1.97819,6.69494 -3.6073,14.31331 -4.65457,21.35453 l -3.14183,23.77857 -23.85469,-4.04005 C 108.6555,771.96811 48.495142,761.00227 28.364116,681.58649 11.956749,617.06116 60.364304,568.00345 81.658973,550.11181 c 1.047279,-17.54535 3.141828,-33.9364 6.050937,-49.404 -8.378224,-29.43464 -12.683701,-60.139 -12.683701,-91.53593 0,-89.68904 35.258381,-174.06832 99.142401,-237.43934 64.00036,-63.48645 148.94632,-98.346289 239.36139,-98.346289 138.58989,0 262.40152,83.455829 313.83455,209.620729 10.93824,-1.50059 21.99285,-2.3086 32.9311,-2.3086 129.04802,0 234.00861,104.11778 234.00861,232.12956 0,128.01178 -104.96059,232.12957 -234.00861,232.12957 H 430.98464 c -22.8074,22.62427 -46.89482,27.12603 -48.52391,27.35689 l -23.73833,3.92461 -3.14184,-23.66313 c -0.58181,-4.2709 -1.39636,-8.65724 -2.44364,-12.92815 -0.69818,-2.88575 -1.39638,-5.7715 -2.21093,-8.42638 -1.86182,2.30859 -3.84002,4.6172 -5.70184,6.92579 -12.21826,14.77503 -24.90197,29.08835 -32.11655,34.39812 l -6.16731,4.50177 H 186.73595 l -6.16731,-4.50177 c -8.14551,-6.00235 -23.85468,-24.35571 -37.70204,-41.20848 z m 322.67824,-49.75029 c -1.51273,6.11778 -3.37457,11.88928 -5.35276,17.31449 h 300.3363 c 103.44787,0 187.4629,-83.45584 187.4629,-185.9576 0,-102.6172 -84.13139,-185.95761 -187.4629,-185.95761 -59.46217,0 -115.89886,28.39577 -151.15725,75.95289 -7.56367,10.27327 -22.22558,12.46644 -32.58201,4.96349 -10.35642,-7.50295 -12.56734,-22.04712 -5.00366,-32.32037 21.29467,-28.74206 49.33847,-52.52061 81.22229,-68.91167 9.30914,-4.73263 18.85102,-8.8881 28.74198,-12.351 -45.84753,-105.50295 -150.80814,-174.7609 -268.10337,-174.7609 -159.30275,0 -289.28169,127.31921 -291.95806,284.76561 12.45097,-22.85512 26.29833,-41.20848 39.09841,-55.29093 37.81839,-41.90105 75.40407,-58.17667 76.91681,-58.86925 l 9.19277,-3.92462 9.19279,3.92462 c 1.6291,0.69258 39.21477,16.9682 76.91681,58.86925 33.16383,36.70672 73.19315,101.11661 79.12773,201.19435 21.41104,17.77621 69.81859,66.83392 53.41122,131.35925 z m -261.81971,49.404 h 86.57505 c 0.3491,-0.46172 0.81455,-0.80801 1.16365,-1.26973 0.11636,-0.11542 0.23273,-0.23086 0.23273,-0.34629 0.46545,-0.46171 0.81455,-0.92344 1.28001,-1.38516 10.24005,-11.31213 27.34561,-32.20495 41.42569,-50.44287 l 11.17097,-14.42874 16.75647,7.38751 c 0.81455,0.34629 1.6291,0.69258 2.32728,1.1543 l 0.69819,0.34629 1.74546,1.03887 c 0.23274,0.11544 0.46546,0.23086 0.69819,0.46172 l 2.09456,1.38516 c 0.23273,0.23086 0.46546,0.34629 0.69818,0.57715 l 1.39637,1.03887 c 0.3491,0.23086 0.58182,0.57715 0.93092,0.80801 0.34909,0.34629 0.69818,0.69258 1.16364,1.03887 0.58182,0.57714 1.16365,1.03887 1.6291,1.61601 l 0.93091,0.92345 c 0.3491,0.46171 0.81456,0.808 1.16365,1.26972 0.23273,0.23086 0.46546,0.46173 0.58183,0.69258 0.46545,0.46173 0.81454,1.03887 1.28,1.50059 l 0.11636,0.11544 2.79275,3.80918 0.11636,0.11543 1.39637,2.07774 0.11637,0.11543 c 1.39637,2.19317 2.67637,4.61719 3.84002,7.15665 0.58183,1.26973 1.16364,2.53947 1.86183,3.92462 0,0.11543 0.11636,0.11543 0.11636,0.23086 0.3491,0.69258 0.58183,1.38516 0.93092,2.07774 0.34909,0.80801 0.69819,1.61602 0.93091,2.42402 0.23273,0.46173 0.3491,0.92345 0.58183,1.5006 0.34908,1.03886 0.81455,2.07773 1.16364,3.1166 0.11636,0.23087 0.23272,0.57716 0.23272,0.80801 0.46546,1.26973 0.81456,2.53946 1.28001,3.92462 0.58182,-0.46172 1.16365,-1.03887 1.74546,-1.61602 l 1.51275,-1.50058 0.23273,-0.23087 c 4.65457,-4.73262 9.54187,-11.08127 13.73098,-19.39223 0.46545,-1.03886 1.04728,-2.07773 1.51273,-3.1166 0,-0.11543 0.11637,-0.11543 0.11637,-0.23086 l 1.39637,-3.1166 c 0,-0.11544 0.11637,-0.23087 0.11637,-0.34629 0.46545,-1.03887 0.81455,-2.07774 1.16364,-3.11661 0.11637,-0.23087 0.11637,-0.3463 0.23273,-0.57716 l 1.04727,-3.1166 c 0.11637,-0.23086 0.23274,-0.46173 0.23274,-0.80802 0.34909,-1.03886 0.69818,-2.07773 0.93091,-3.1166 0.11637,-0.34629 0.23273,-0.57715 0.23273,-0.92344 0.3491,-1.38515 0.81455,-2.77031 1.16365,-4.2709 12.45097,-49.17315 -43.75299,-89.34277 -44.21844,-89.68905 l -9.54188,-6.57951 -0.34909,-11.54299 c -2.44365,-73.298 -24.66924,-134.12956 -66.2113,-180.99411 -20.82921,-23.43228 -41.54205,-37.39929 -53.06212,-44.09423 -11.52007,6.69494 -32.23292,20.66195 -53.06213,44.09423 -1.6291,1.84688 -3.14184,3.69375 -4.65457,5.54063 -0.46546,0.57716 -0.81456,1.03887 -1.28001,1.61603 -1.16364,1.50058 -2.32729,2.88574 -3.49093,4.38633 l -1.04728,1.38516 c -1.51273,1.84688 -2.90911,3.80918 -4.30547,5.7715 -0.23273,0.34629 -0.46547,0.69258 -0.81456,1.03887 -1.16364,1.61601 -2.32728,3.23204 -3.49093,4.96348 -0.34909,0.57715 -0.69818,1.15431 -1.16364,1.61602 -1.16365,1.73145 -2.32729,3.57833 -3.49092,5.42521 -0.11637,0.23085 -0.3491,0.46172 -0.46547,0.69258 l -3.84002,6.23321 c -0.23273,0.46172 -0.58182,0.92345 -0.81455,1.38516 -1.04727,1.73145 -1.97819,3.46289 -2.9091,5.19435 -0.23273,0.46171 -0.58183,1.03887 -0.81456,1.50058 -1.16365,2.19317 -2.32728,4.38634 -3.49092,6.69494 -1.04728,2.19317 -2.21093,4.38634 -3.14184,6.69493 -0.23273,0.46173 -0.46546,1.03887 -0.69819,1.50059 -0.93091,1.96232 -1.74547,3.92462 -2.67638,6.00236 -0.11637,0.34629 -0.23272,0.69258 -0.46545,0.92344 -1.04728,2.3086 -1.9782,4.73263 -2.90911,7.15665 -0.11637,0.34629 -0.23273,0.57716 -0.3491,0.92345 -0.81454,2.07774 -1.62909,4.2709 -2.32729,6.34865 -0.11636,0.46171 -0.34908,0.92343 -0.46545,1.38515 -1.74547,4.84806 -3.2582,9.92697 -4.77093,14.89045 -0.11637,0.46173 -0.23273,0.80802 -0.3491,1.26974 -0.58183,2.19317 -1.28001,4.50176 -1.86183,6.69494 -0.11636,0.34628 -0.23273,0.808 -0.34909,1.1543 -1.28001,4.96347 -2.44366,10.04239 -3.37457,15.12132 -0.11637,0.46171 -0.23272,1.03886 -0.34909,1.50058 l -1.04728,5.88693 -0.34909,1.73145 c -0.3491,2.07773 -0.69819,4.04004 -0.93092,6.11778 -0.11636,0.46172 -0.11636,0.80801 -0.23273,1.26973 l -1.04728,7.61837 c -0.34908,2.42403 -0.58181,4.96349 -0.81454,7.38752 -0.11637,0.69258 -0.11637,1.38515 -0.23274,2.19317 -0.11636,1.84688 -0.34908,3.57833 -0.46545,5.42521 -0.11636,0.808 -0.11636,1.73144 -0.23273,2.53945 -0.11636,1.84688 -0.23273,3.57833 -0.34909,5.42521 0,0.80801 -0.11636,1.50059 -0.11636,2.3086 -0.11637,2.53945 -0.23273,5.19434 -0.3491,7.73381 l -0.34909,11.54298 -6.40003,4.38634 -3.14184,2.19317 c -0.58183,0.34629 -56.785793,40.5159 -44.334817,89.80447 5.934581,23.20142 16.174647,37.053 25.483787,45.24853 7.44732,-24.00942 18.15284,-38.78445 32.46565,-45.1331 l 16.75647,-7.38751 11.17096,14.42874 c 15.47646,20.31567 34.67657,43.6325 44.3348,53.79034 z"
     fill="#005BFF"
     id="path5"
     style="fill:#000000;fill-opacity:1;stroke-width:1.15896" />
  <path
     d="m 392.23533,707.78907 c 0.34909,1.03888 0.81454,2.07775 1.16364,3.11662 -0.46546,-1.03887 -0.81455,-2.07774 -1.16364,-3.11662 z m -1.51275,-3.80918 c 0.3491,0.80801 0.6982,1.61602 0.93093,2.42402 -0.3491,-0.92343 -0.58183,-1.73144 -0.93093,-2.42402 z m 2.90912,7.7338 c 0.46545,1.26974 0.81455,2.53946 1.28,3.92462 -0.46545,-1.38516 -0.81455,-2.65488 -1.28,-3.92462 z m -101.81877,17.66078 c 0.46545,-0.46171 0.81454,-0.92344 1.28001,-1.38516 -0.46547,0.46172 -0.93093,0.92345 -1.28001,1.38516 z m 75.98589,-55.98351 2.09456,1.38516 z m 2.9091,1.96231 1.39638,1.03886 c -0.58182,-0.34629 -1.04728,-0.69257 -1.39638,-1.03886 z m 2.21093,1.84688 c 0.34909,0.34629 0.69818,0.69258 1.16364,1.03887 -0.34909,-0.34629 -0.81455,-0.69258 -1.16364,-1.03887 z m -7.44731,-5.19435 1.74546,1.03887 z m -3.02547,-1.50059 c 0.81454,0.34629 1.62909,0.69258 2.32728,1.1543 -0.81455,-0.46172 -1.6291,-0.80801 -2.32728,-1.1543 z m -72.14589,60.48528 c 0.3491,-0.46172 0.81455,-0.80801 1.16365,-1.26973 -0.3491,0.34629 -0.81455,0.80801 -1.16365,1.26973 z m 99.49149,-29.3192 c 0,0.11543 0.11637,0.11543 0.11637,0.23086 -0.11637,-0.11543 -0.11637,-0.11543 -0.11637,-0.23086 z m -14.08008,-21.81625 0.93091,0.92344 z m 6.74914,8.42638 0.11636,0.11543 c 0,0 0,-0.11543 -0.11636,-0.11543 z m 1.51273,2.19317 0.11636,0.11543 c -0.11636,0 -0.11636,0 -0.11636,-0.11543 z m -4.30548,-6.11779 0.11636,0.11544 z m -1.86183,-2.3086 c 0.23273,0.23087 0.46546,0.46172 0.58183,0.69258 -0.23274,-0.11542 -0.3491,-0.46171 -0.58183,-0.69258 z M 154.03758,443.10827 c -0.93091,1.96232 -1.74547,3.92462 -2.67639,6.00236 0.81456,-1.9623 1.74548,-4.04004 2.67639,-6.00236 z m 3.84002,-8.19552 c -1.04728,2.19317 -2.21092,4.38634 -3.14184,6.69493 1.04728,-2.19316 2.09456,-4.50176 3.14184,-6.69493 z m -18.15283,47.21083 c -0.58182,2.19317 -1.28001,4.50178 -1.86183,6.69494 0.69818,-2.19316 1.28001,-4.38633 1.86183,-6.69494 z m -7.21459,32.08952 c -0.3491,2.07775 -0.69819,4.04005 -0.93092,6.11779 0.23273,-1.9623 0.58182,-4.04004 0.93092,-6.11779 z m 15.24372,-56.09893 z m -2.9091,7.84923 c -1.74546,4.84806 -3.25821,9.92697 -4.77094,14.89046 1.51273,-5.07892 3.02548,-10.0424 4.77094,-14.89046 z m 6.05094,-15.92933 c -1.04728,2.3086 -1.97819,4.73263 -2.90911,7.15665 1.04728,-2.30859 1.9782,-4.73262 2.90911,-7.15665 z m -19.54921,71.68198 -1.04728,7.61838 z m 2.56002,-15.12132 -1.04728,5.88692 z m 278.22707,186.30389 c -4.18912,8.19552 -8.96005,14.54416 -13.73098,19.39223 3.49092,-3.57833 7.09822,-7.96467 10.35642,-13.38987 1.16364,-1.84688 2.21092,-3.8092 3.37456,-6.00236 z"
     fill="#005bff"
     id="path6"
     style="stroke-width:1.15896" />
  <path
     d="m 327.7695,686.08825 c 2.32729,-2.88575 4.53821,-5.7715 6.74912,-8.54181 -14.08008,18.1225 -31.18563,39.13074 -41.42568,50.44287 1.04726,-1.03887 2.09454,-2.30859 3.14182,-3.57833 8.61097,-9.81154 20.48013,-24.24028 31.53474,-38.32273 z M 134.25564,505.09414 c 1.04728,-5.07891 2.21092,-10.15783 3.37457,-15.12132 -0.69818,2.65489 -1.28001,5.30978 -1.86183,7.96467 -0.58183,2.42403 -1.04728,4.84805 -1.51274,7.15665 z m -5.00367,33.82096 c -0.11636,1.84688 -0.34908,3.57833 -0.46545,5.42521 0.11637,-1.84688 0.34909,-3.57833 0.46545,-5.42521 z m 1.04728,-9.58067 c -0.34908,2.42403 -0.58181,4.96348 -0.81454,7.38751 0.23273,-2.42403 0.58182,-4.96348 0.81454,-7.38751 z m -1.74546,17.54534 c -0.11636,1.84688 -0.23273,3.57833 -0.34909,5.4252 0.11636,-1.73144 0.23273,-3.57832 0.34909,-5.4252 z m -0.46545,7.84924 c -0.11637,2.53945 -0.23273,5.19434 -0.3491,7.7338 0.11637,-2.65489 0.23273,-5.19435 0.3491,-7.7338 z m 289.86349,123.97173 c 0.3491,-1.03887 0.6982,-2.07774 0.93092,-3.11661 -0.23272,1.03887 -0.58182,2.07774 -0.93092,3.11661 z m -1.28,3.80918 1.04728,-3.1166 c -0.34909,1.1543 -0.69819,2.19317 -1.04728,3.1166 z m -20.01466,31.51237 1.51273,-1.50059 z m 22.57468,-39.3616 c 0.34909,-1.38516 0.81454,-2.77032 1.16364,-4.2709 -0.3491,1.38516 -0.69818,2.88574 -1.16364,4.2709 z m -7.09823,18.23793 c 0.46546,-1.03887 1.04728,-2.07774 1.51274,-3.11661 -0.58182,1.1543 -1.04728,2.07774 -1.51274,3.11661 z M 193.95054,381.4687 c -1.6291,1.84688 -3.14184,3.69375 -4.65457,5.54063 1.51273,-1.84688 3.02547,-3.69375 4.65457,-5.54063 z m 221.20855,304.73499 c 0.46547,-1.03887 0.81455,-2.07774 1.16365,-3.11661 -0.3491,1.03887 -0.69818,2.07774 -1.16365,3.11661 z m -1.51273,3.46289 1.39637,-3.1166 z M 187.89959,388.50992 c -1.16364,1.5006 -2.32729,2.88575 -3.49092,4.38634 1.16363,-1.38516 2.32728,-2.88574 3.49092,-4.38634 z m -18.15283,25.39459 -3.84002,6.23321 z m 3.95638,-6.11779 c -1.16364,1.73145 -2.32729,3.57833 -3.49092,5.42521 1.16363,-1.84688 2.32728,-3.69376 3.49092,-5.42521 z m -8.61095,13.85159 c -1.04728,1.73145 -1.97819,3.4629 -2.90911,5.19434 0.93092,-1.84688 1.86183,-3.57832 2.90911,-5.19434 z m -3.72367,6.69494 z m 21.99287,-34.05183 c -1.51274,1.84688 -2.90912,3.80919 -4.30548,5.77149 1.39636,-1.84688 2.79274,-3.80918 4.30548,-5.77149 z m -5.12003,6.9258 c -1.16365,1.61601 -2.32729,3.23204 -3.49094,4.96348 1.16365,-1.73144 2.32729,-3.34747 3.49094,-4.96348 z"
     fill="#005bff"
     id="path7"
     style="stroke-width:1.15896" />
  <path
     d="m 249.68905,454.53584 c 23.38921,0 42.47296,18.9305 42.47296,42.13192 0,23.20141 -19.08375,42.13192 -42.47296,42.13192 -23.38923,0 -42.47298,-18.93051 -42.47298,-42.13192 0,-23.20142 19.08375,-42.13192 42.47298,-42.13192 z"
     fill="#ffffff"
     id="path8"
     style="stroke-width:1.15896" />
  <path
     id="path9"
     style="fill:#ff0000;fill-opacity:1;stroke-width:1.15896"
     d="m 249.68769,431.44985 c -36.30535,0 -65.74583,29.31951 -65.74583,65.21791 0,35.89839 29.55685,65.2179 65.74583,65.2179 36.18899,0 65.74584,-29.20408 65.74584,-65.2179 0,-35.8984 -29.44048,-65.21791 -65.74584,-65.21791 z m 0,23.20141 c 23.38902,0 42.47298,18.93072 42.47298,42.13193 0,23.2012 -19.08396,42.13191 -42.47298,42.13191 -23.38902,0 -42.47298,-18.93071 -42.47298,-42.13191 0,-23.20121 19.08396,-42.13193 42.47298,-42.13193 z" />
  <path
     id="path10"
     style="fill:#ff0000;fill-opacity:1;stroke-width:1.15896"
     d="m 416.25157,177.11735 c -27.5973,0.67427 -58.88513,6.66051 -93.71982,20.93321 -5.93455,2.42403 -8.72733,9.23442 -6.28367,15.12132 2.44365,5.8869 9.30917,8.77267 15.24373,6.11779 66.09479,-27.01056 125.78991,-25.85624 177.33921,3.46289 38.40015,21.81621 57.48396,51.48175 57.71669,51.82804 2.21093,3.46289 6.05095,5.42521 9.89097,5.42521 2.09456,0 4.18912,-0.57716 6.16731,-1.73145 5.35276,-3.46291 6.98186,-10.50413 3.6073,-15.92933 -0.93091,-1.38516 -22.45841,-34.85989 -65.86221,-59.56184 -22.51644,-12.79106 -53.50073,-24.48753 -92.49799,-25.63699 -3.7914,-0.11173 -7.65905,-0.12519 -11.60152,-0.0288 z" />
  <text
     xml:space="preserve"
     style="font-style:normal;font-variant:normal;font-weight:normal;font-stretch:normal;font-size:181.467px;font-family:borg9;-inkscape-font-specification:borg9;fill:#cdcdcd;fill-opacity:1;stroke-width:5.12;stroke-dasharray:none;stroke:#000000"
     x="171.96455"
     y="823.00153"
     id="text10"
     transform="scale(0.88628636,1.1283035)"><tspan
       sodipodi:role="line"
       id="tspan10"
       style="font-style:normal;font-variant:normal;font-weight:normal;font-stretch:normal;font-family:borg9;-inkscape-font-specification:borg9;stroke-width:5.12;stroke-dasharray:none;stroke:#000000"
       x="171.96455"
       y="823.00153"><tspan
   style="fill:#ff0000;stroke-width:5.12;stroke-dasharray:none;stroke:#000000"
   id="tspan22">CI</tspan>FMW</tspan></text>
</svg>
